<?xml version="1.0" standalone="no"?>
<!DOCTYPE svg PUBLIC "-//W3C//DTD SVG 20010904//EN"
 "http://www.w3.org/TR/2001/REC-SVG-20010904/DTD/svg10.dtd">
<svg version="1.0" xmlns="http://www.w3.org/2000/svg"
 width="1080.000000pt" height="1080.000000pt" viewBox="0 0 1080.000000 1080.000000"
 preserveAspectRatio="xMidYMid meet">
<metadata>
Created by potrace 1.11, written by Peter Selinger 2001-2013
</metadata>
<g transform="translate(0.000000,1080.000000) scale(0.100000,-0.100000)"
fill="#000000" stroke="none">
<path d="M5159 9506 c-2 -2 -40 -6 -84 -10 -286 -21 -600 -81 -880 -169 -55
-17 -102 -32 -105 -32 -3 -1 -12 -4 -20 -8 -8 -3 -49 -18 -90 -33 -192 -70
-416 -173 -578 -266 -46 -26 -86 -48 -88 -48 -3 0 -17 -9 -32 -19 -15 -10 -67
-45 -117 -76 -92 -60 -293 -205 -355 -258 -120 -102 -164 -142 -251 -225 -74
-71 -126 -110 -223 -166 -221 -130 -391 -260 -571 -441 -371 -370 -606 -761
-783 -1305 -23 -70 -77 -276 -85 -325 -3 -16 -15 -82 -26 -145 -32 -172 -36
-236 -36 -580 0 -287 6 -433 20 -500 3 -14 7 -38 9 -55 7 -47 18 -110 21 -115
2 -3 6 -24 10 -48 10 -69 62 -263 105 -393 106 -320 268 -635 462 -898 39 -53
74 -98 77 -101 3 -3 24 -27 46 -55 82 -104 306 -318 434 -415 18 -14 38 -30
44 -36 27 -24 248 -165 325 -206 57 -31 111 -72 175 -134 51 -49 122 -114 157
-144 36 -30 71 -61 79 -68 26 -25 205 -158 301 -223 109 -75 290 -184 370
-224 30 -15 57 -31 58 -36 2 -5 9 -9 16 -9 6 0 54 -21 106 -46 283 -139 760
-292 1025 -330 17 -2 40 -6 53 -8 22 -5 123 -19 217 -31 254 -31 738 -27 992
9 21 3 70 10 108 16 59 8 316 61 365 74 8 2 49 14 90 25 41 12 85 24 97 26 12
3 82 26 155 51 497 173 980 456 1373 804 53 47 322 316 360 360 503 580 824
1243 959 1982 14 73 28 165 31 203 4 39 9 72 10 75 2 3 7 53 12 110 15 195 8
693 -11 796 -2 10 -7 44 -10 75 -4 31 -8 66 -11 77 -2 11 -7 42 -11 69 -3 26
-8 57 -10 68 -3 11 -7 36 -10 55 -3 19 -10 53 -16 75 -5 22 -12 47 -13 55 -10
49 -27 114 -45 175 -12 39 -23 79 -25 90 -5 32 -80 242 -130 366 -90 220 -226
479 -358 682 -64 98 -249 350 -281 382 -6 7 -33 39 -61 71 -65 78 -323 335
-404 405 -35 30 -69 59 -75 65 -55 53 -510 374 -530 374 -2 0 -48 25 -102 56
-182 103 -435 216 -643 288 -91 32 -360 109 -416 120 -11 3 -40 9 -65 15 -56
12 -97 21 -130 26 -14 2 -38 6 -55 9 -16 3 -52 8 -80 12 -27 3 -58 8 -67 9 -9
2 -48 7 -85 11 -37 3 -79 8 -93 11 -31 5 -596 13 -601 9z m566 -90 c17 -2 62
-7 100 -11 80 -7 110 -11 162 -19 21 -3 56 -9 78 -11 199 -27 571 -130 815
-227 188 -74 566 -262 625 -310 5 -4 53 -36 105 -69 221 -143 442 -322 639
-520 53 -53 177 -185 206 -220 11 -14 41 -49 66 -79 172 -207 320 -434 464
-715 156 -304 295 -686 350 -970 5 -22 9 -44 11 -50 5 -20 44 -251 49 -295 3
-25 8 -61 10 -80 25 -200 25 -739 1 -865 -2 -11 -7 -49 -11 -85 -3 -36 -8 -72
-10 -80 -2 -8 -7 -35 -10 -60 -9 -63 -61 -304 -85 -397 -32 -120 -116 -366
-155 -458 -7 -16 -25 -59 -40 -95 -104 -249 -307 -594 -488 -830 -44 -58 -83
-107 -87 -110 -3 -3 -16 -18 -29 -35 -96 -125 -363 -391 -520 -517 -42 -34
-81 -67 -87 -75 -6 -7 -16 -13 -22 -13 -6 0 -12 -4 -14 -8 -6 -16 -246 -180
-378 -259 -122 -72 -368 -203 -383 -203 -3 0 -39 -15 -79 -34 -236 -111 -632
-230 -918 -276 -36 -5 -76 -12 -89 -15 -13 -2 -49 -7 -80 -10 -31 -4 -67 -8
-81 -11 -144 -24 -711 -24 -860 0 -30 5 -139 19 -160 21 -66 5 -277 47 -410
81 -326 84 -687 227 -960 382 -73 41 -215 126 -220 132 -3 3 -30 21 -60 40
-52 33 -288 208 -315 233 -7 7 -23 21 -36 31 -53 42 -108 96 -99 96 5 0 33 -9
62 -21 199 -79 515 -150 743 -166 186 -14 543 -7 675 13 559 83 1038 314 1458
702 130 119 134 123 141 116 3 -3 7 -152 8 -332 1 -180 2 -330 3 -333 0 -3
461 -5 1025 -5 l1025 0 0 135 c0 161 0 5421 0 5694 l0 187 -1040 0 -1041 0 1
-152 c1 -84 1 -211 0 -281 l0 -128 -27 19 c-16 11 -37 29 -48 39 -271 244
-561 410 -925 530 -119 39 -309 86 -420 103 -41 6 -86 13 -100 16 -157 26
-751 26 -886 0 -12 -3 -38 -7 -59 -10 -162 -26 -450 -105 -569 -155 -60 -26
-65 -26 -35 2 369 340 874 638 1395 821 67 23 271 84 304 91 8 2 67 15 130 28
102 23 293 55 419 71 25 3 90 9 145 12 56 3 102 8 104 9 5 5 482 -4 517 -9z
m-1035 -2621 c57 -11 212 -55 250 -72 175 -75 243 -112 349 -191 85 -65 181
-158 242 -240 24 -31 47 -58 52 -60 4 -2 7 -9 7 -15 0 -6 6 -18 14 -26 8 -9
37 -61 65 -116 59 -115 112 -270 136 -400 20 -104 28 -380 14 -470 -5 -33 -11
-73 -14 -90 -31 -206 -158 -486 -295 -650 -210 -251 -533 -419 -895 -464 -82
-11 -342 -8 -405 3 -19 4 -62 12 -95 17 -33 6 -103 24 -155 41 -348 111 -601
320 -763 628 -24 47 -48 96 -52 110 -4 14 -13 39 -21 55 -14 32 -59 179 -70
230 -3 17 -8 143 -10 280 -3 276 3 336 57 497 38 114 141 325 169 348 4 3 21
28 40 55 53 78 226 245 321 308 151 100 342 180 509 212 41 8 84 16 95 19 30
6 414 -1 455 -9z m2565 -1921 c139 -45 268 -186 292 -320 9 -50 9 -144 -1
-198 -11 -60 -64 -153 -120 -208 -133 -134 -335 -168 -503 -86 -143 69 -253
248 -248 403 7 200 149 374 340 418 72 17 171 13 240 -9z m5 -1112 c89 -32
140 -62 191 -115 178 -183 135 -425 -120 -685 -92 -92 -328 -269 -342 -255 -4
5 -9 67 -12 138 -2 72 -10 144 -16 160 -49 130 -139 234 -292 343 -179 126
-218 214 -130 290 132 113 551 185 721 124z"/>
</g>
</svg>
