<?xml version="1.0" encoding="UTF-8" standalone="no"?>
<svg
   xmlns:dc="http://purl.org/dc/elements/1.1/"
   xmlns:cc="http://creativecommons.org/ns#"
   xmlns:rdf="http://www.w3.org/1999/02/22-rdf-syntax-ns#"
   xmlns:svg="http://www.w3.org/2000/svg"
   xmlns="http://www.w3.org/2000/svg"
   viewBox="0 0 319.99999 279.99999"
   id="svg2"
   version="1.1">
  <defs
     id="defs4" />
  <metadata
     id="metadata7">
    <rdf:RDF>
      <cc:Work
         rdf:about="">
        <dc:format>image/svg+xml</dc:format>
        <dc:type
           rdf:resource="http://purl.org/dc/dcmitype/StillImage" />
        <dc:title></dc:title>
      </cc:Work>
    </rdf:RDF>
  </metadata>
  <g
     id="layer1"
     transform="translate(-96,-656.36219)">
    <path
       d="m 116,656.36219 -20,60 v 20 c 0,40 40,40 40,40 22.16,0 40,-17.84 40,-40 0,22.16 17.84,40 40,40 22.16,0 40,-17.84 40,-40 0,22.16 17.84,40 40,40 22.16,0 40,-17.84 40,-40 0,22.16 17.84,40 40,40 0,0 40,0 40,-40 v -20 l -20,-60 z m 0,140 v 120 c 0,0 0,20 20,20 h 100 140 c 20,0 20,-20 20,-20 v -120 h -20 v 120 h -40 v -70 c 0,-16.62 -13.38,-30 -30,-30 -16.62,0 -30,13.38 -30,30 v 70 H 136 v -120 z m 60,20 v 60 h 60 v -60 z"
       id="rect8928-6-4" />
  </g>
</svg>
