<svg xmlns="http://www.w3.org/2000/svg" viewBox="0 0 906.52 503.84"><defs><style>.cls-1{fill:#ecede2;}.cls-2,.cls-24,.cls-25,.cls-3,.cls-33,.cls-34,.cls-36,.cls-5{fill:none;}.cls-2,.cls-5{stroke:#1e1e30;}.cls-2,.cls-24,.cls-25,.cls-33,.cls-34,.cls-36,.cls-5{stroke-linecap:round;stroke-linejoin:round;}.cls-2{stroke-width:3px;}.cls-3{stroke:#dfe0cd;stroke-miterlimit:10;stroke-width:2px;}.cls-21,.cls-22,.cls-30,.cls-32,.cls-4,.cls-8{fill:#fff;}.cls-5{stroke-width:4px;}.cls-6{fill:#28f3bb;}.cls-7{fill:#1bdda1;}.cls-8{opacity:0.56;}.cls-9{opacity:0.15;}.cls-10{fill:#1b3c47;}.cls-11{fill:#3f3e3e;}.cls-12{fill:#302f2f;}.cls-13{fill:#cacad8;}.cls-14{fill:#a1a1c4;}.cls-15{opacity:0.15;}.cls-16{fill:#546b76;}.cls-17{fill:#7997a3;}.cls-18{fill:#3c5159;}.cls-19{fill:#b4e4f9;}.cls-20{fill:#70bee0;}.cls-21{opacity:0.59;}.cls-22{opacity:0.3;}.cls-23{fill:#1e1e30;}.cls-24,.cls-34{stroke:#70bee0;}.cls-24,.cls-25{stroke-width:9px;}.cls-25{stroke:#7997a3;}.cls-26{fill:#ffccc0;}.cls-27{fill:#f29681;}.cls-28{fill:#fdfdff;}.cls-29{fill:#dd7b6b;}.cls-30{opacity:0.39;}.cls-31{fill:#dd9742;}.cls-32{opacity:0.23;}.cls-33{stroke:#3c5159;stroke-width:5px;}.cls-34{stroke-width:7px;}.cls-35{fill:#dc166d;}.cls-36{stroke:#fff;stroke-width:8px;}</style></defs><title>Asset 27</title><g id="Layer_2" data-name="Layer 2"><g id="Layer_1-2" data-name="Layer 1"><path class="cls-1" d="M132.62,473.84H17.07A15.07,15.07,0,0,1,2,458.77H2A15.07,15.07,0,0,1,17.07,443.7H132.62"/><line class="cls-2" x1="3.49" y1="456.23" x2="22.64" y2="456.23"/><line class="cls-3" x1="2" y1="453.91" x2="132.62" y2="453.91"/><line class="cls-3" x1="2" y1="458.98" x2="132.62" y2="458.98"/><line class="cls-3" x1="2" y1="464.04" x2="132.62" y2="464.04"/><line class="cls-3" x1="6" y1="469.1" x2="132.62" y2="469.1"/><line class="cls-3" x1="6" y1="448.85" x2="132.62" y2="448.85"/><line class="cls-2" x1="4" y1="463.65" x2="83.5" y2="463.65"/><path class="cls-4" d="M40.65,443.53H88.71a0,0,0,0,1,0,0v0a5.32,5.32,0,0,1-5.32,5.32H46a5.32,5.32,0,0,1-5.32-5.32v0a0,0,0,0,1,0,0Z"/><path class="cls-5" d="M132.62,473.84H17.07A15.07,15.07,0,0,1,2,458.77H2A15.07,15.07,0,0,1,17.07,443.7H132.62"/><line class="cls-5" x1="817.34" y1="364.31" x2="824.72" y2="431.82"/><polyline class="cls-2" points="817.65 372.4 811.39 373.17 813.73 393.33"/><line class="cls-5" x1="842" y1="362.31" x2="833.76" y2="429.82"/><line class="cls-5" x1="864.27" y1="362.31" x2="856.03" y2="429.82"/><rect class="cls-6" x="816.53" y="399.89" width="61.15" height="76.06"/><rect class="cls-7" x="818.48" y="401.31" width="10.34" height="73.15"/><rect class="cls-4" x="856.65" y="401.31" width="3.51" height="73.65"/><rect class="cls-8" x="863.2" y="401.31" width="1.73" height="73.65"/><rect class="cls-8" x="868.68" y="401.31" width="1.73" height="73.65"/><rect class="cls-5" x="816.53" y="399.89" width="61.15" height="76.06"/><g class="cls-9"><path class="cls-10" d="M797.6,126.5h-.29a1.5,1.5,0,0,1,0-3h.29a1.5,1.5,0,0,1,0,3Z"/><path class="cls-10" d="M808.53,126.5h-6a1.5,1.5,0,0,1,0-3h3V108.44H758.77V123.5H786a1.5,1.5,0,0,1,0,3H755.77V105.44h52.76Z"/><path class="cls-10" d="M793.26,126.5h-2.67a1.5,1.5,0,0,1,0-3h2.67a1.5,1.5,0,0,1,0,3Z"/><path class="cls-10" d="M768.27,162.61h-12.5V141.55h37.14a1.5,1.5,0,0,1,0,3H758.77v15.06h9.5a1.5,1.5,0,0,1,0,3Z"/><path class="cls-10" d="M778.07,162.61h-5.41a1.5,1.5,0,0,1,0-3h5.41a1.5,1.5,0,0,1,0,3Z"/><path class="cls-10" d="M782.2,162.61h-.11a1.5,1.5,0,0,1,0-3h.11a1.5,1.5,0,0,1,0,3Z"/><path class="cls-10" d="M808.53,162.61H786.45a1.5,1.5,0,0,1,0-3h19.08V144.55h-6.62a1.5,1.5,0,0,1,0-3h9.67Z"/><path class="cls-10" d="M783.25,144.55H730.49V123.5h52.76Zm-49.76-3h46.76V126.5H733.49Z"/></g><path class="cls-11" d="M181,452.55a20.49,20.49,0,1,1,20.49-20.49A20.51,20.51,0,0,1,181,452.55Zm0-31a10.49,10.49,0,1,0,10.49,10.49A10.49,10.49,0,0,0,181,421.57Z"/><path class="cls-2" d="M181.07,453.53A20.49,20.49,0,1,1,201.56,433,20.51,20.51,0,0,1,181.07,453.53Zm0-31A10.49,10.49,0,1,0,191.56,433,10.49,10.49,0,0,0,181.07,422.55Z"/><rect class="cls-11" x="113.53" y="388.63" width="66.88" height="84.81" rx="5.44"/><path class="cls-12" d="M181,405.56V471.1a5.44,5.44,0,0,1-5.44,5.44h-56a5.43,5.43,0,0,1-5.44-5.44V459a29.87,29.87,0,0,0,15.33,3.62c10.17-.37,19.74-5.54,27-12.65s12.5-16.06,16.92-25.22A132.71,132.71,0,0,0,181,405.56Z"/><path class="cls-13" d="M755.91,473.65a23.66,23.66,0,1,1,47.32,0"/><path class="cls-14" d="M803.25,473.62h-39.1A79.15,79.15,0,0,0,792.84,454,23.65,23.65,0,0,1,803.25,473.62Z"/><g class="cls-15"><path class="cls-10" d="M782,353h-12.5V331.91h37.14a1.5,1.5,0,0,1,0,3H772.53V350H782a1.5,1.5,0,0,1,0,3Z"/><path class="cls-10" d="M791.83,353h-5.41a1.5,1.5,0,1,1,0-3h5.41a1.5,1.5,0,1,1,0,3Z"/><path class="cls-10" d="M796,353h-.11a1.5,1.5,0,0,1,0-3H796a1.5,1.5,0,0,1,0,3Z"/><path class="cls-10" d="M822.29,353H800.21a1.5,1.5,0,0,1,0-3h19.08V334.91h-6.62a1.5,1.5,0,0,1,0-3h9.67Z"/><path class="cls-10" d="M797,334.91H744.25V313.86H797Zm-49.76-3H794V316.86H747.25Z"/></g><g class="cls-9"><path class="cls-10" d="M80,363.78h-.29a1.5,1.5,0,0,1,0-3H80a1.5,1.5,0,0,1,0,3Z"/><path class="cls-10" d="M90.89,363.78h-6a1.5,1.5,0,1,1,0-3h3V345.72H41.13v15.06H68.32a1.5,1.5,0,0,1,0,3H38.13V342.72H90.89Z"/><path class="cls-10" d="M75.62,363.78H73a1.5,1.5,0,1,1,0-3h2.67a1.5,1.5,0,0,1,0,3Z"/><path class="cls-10" d="M50.63,399.89H38.13V378.83H75.27a1.5,1.5,0,0,1,0,3H41.13v15.06h9.5a1.5,1.5,0,0,1,0,3Z"/><path class="cls-10" d="M60.43,399.89H55a1.5,1.5,0,1,1,0-3h5.41a1.5,1.5,0,1,1,0,3Z"/><path class="cls-10" d="M64.56,399.89h-.11a1.5,1.5,0,1,1,0-3h.11a1.5,1.5,0,0,1,0,3Z"/><path class="cls-10" d="M90.89,399.89H68.81a1.5,1.5,0,0,1,0-3H87.89V381.83H81.27a1.5,1.5,0,1,1,0-3h9.67Z"/><path class="cls-10" d="M65.61,381.83H12.85V360.78H65.61Zm-49.76-3H62.61V363.78H15.85Z"/></g><g class="cls-9"><path class="cls-10" d="M143.46,172.79h-.29a1.5,1.5,0,0,1,0-3h.29a1.5,1.5,0,0,1,0,3Z"/><path class="cls-10" d="M154.39,172.79h-6a1.5,1.5,0,0,1,0-3h3V154.73H104.63v15.06h27.19a1.5,1.5,0,0,1,0,3H101.63V151.73h52.76Z"/><path class="cls-10" d="M139.12,172.79h-2.67a1.5,1.5,0,0,1,0-3h2.67a1.5,1.5,0,0,1,0,3Z"/><path class="cls-10" d="M114.13,208.9h-12.5V187.84h37.14a1.5,1.5,0,0,1,0,3H104.63V205.9h9.5a1.5,1.5,0,0,1,0,3Z"/><path class="cls-10" d="M123.93,208.9h-5.41a1.5,1.5,0,0,1,0-3h5.41a1.5,1.5,0,1,1,0,3Z"/><path class="cls-10" d="M128.06,208.9H128a1.5,1.5,0,0,1,0-3h.11a1.5,1.5,0,0,1,0,3Z"/><path class="cls-10" d="M154.39,208.9H132.31a1.5,1.5,0,0,1,0-3h19.08V190.84h-6.62a1.5,1.5,0,0,1,0-3h9.67Z"/><path class="cls-10" d="M129.11,190.84H76.35V169.79h52.76Zm-49.76-3h46.76V172.79H79.35Z"/></g><g class="cls-9"><path class="cls-10" d="M499.29,21.06H499a1.5,1.5,0,0,1,0-3h.29a1.5,1.5,0,0,1,0,3Z"/><path class="cls-10" d="M510.22,21.06h-6a1.5,1.5,0,0,1,0-3h3V3H460.46V18.06h27.19a1.5,1.5,0,0,1,0,3H457.46V0h52.76Z"/><path class="cls-10" d="M495,21.06h-2.67a1.5,1.5,0,0,1,0-3H495a1.5,1.5,0,0,1,0,3Z"/><path class="cls-10" d="M470,57.17h-12.5V36.11H494.6a1.5,1.5,0,0,1,0,3H460.46V54.17H470a1.5,1.5,0,0,1,0,3Z"/><path class="cls-10" d="M479.76,57.17h-5.41a1.5,1.5,0,0,1,0-3h5.41a1.5,1.5,0,0,1,0,3Z"/><path class="cls-10" d="M483.89,57.17h-.11a1.5,1.5,0,0,1,0-3h.11a1.5,1.5,0,0,1,0,3Z"/><path class="cls-10" d="M510.22,57.17H488.14a1.5,1.5,0,0,1,0-3h19.08V39.11H500.6a1.5,1.5,0,0,1,0-3h9.67Z"/><path class="cls-10" d="M484.94,39.11H432.18v-21h52.76Zm-49.76-3h46.76v-15H435.18Z"/></g><path class="cls-13" d="M531.15,484.66H391.38a9.26,9.26,0,0,1-8.6-12.7l25.91-65,52.58-14.44L513.85,407l25.9,65A9.26,9.26,0,0,1,531.15,484.66Z"/><polygon class="cls-14" points="524.48 433.96 399.54 433.96 400.75 425.69 523.27 425.69 524.48 433.96"/><circle class="cls-14" cx="411.32" cy="435.2" r="4.38"/><circle class="cls-14" cx="424.57" cy="441.05" r="2.24"/><circle class="cls-14" cx="415.12" cy="449.32" r="2.92"/><path class="cls-5" d="M531.15,484.66H391.38a9.26,9.26,0,0,1-8.6-12.7l25.91-65,52.58-14.44L513.85,407l25.9,65A9.26,9.26,0,0,1,531.15,484.66Z"/><path class="cls-16" d="M237.36,82.58H678.15a17.1,17.1,0,0,1,17.1,17.1V410.16A16.24,16.24,0,0,1,679,426.4H236.51a16.24,16.24,0,0,1-16.24-16.24V99.68A17.1,17.1,0,0,1,237.36,82.58Z"/><path class="cls-17" d="M694.71,99.67v10.54a17.1,17.1,0,0,0-17.09-17.1H236.83a17.11,17.11,0,0,0-17.1,17.1V99.67a17.1,17.1,0,0,1,17.1-17.09H677.62A17.09,17.09,0,0,1,694.71,99.67Z"/><path class="cls-13" d="M695.25,370.4v39.76A16.24,16.24,0,0,1,679,426.4H236.51a16.24,16.24,0,0,1-16.24-16.24V370.4Z"/><rect class="cls-14" x="220.47" y="369.56" width="474.98" height="8.76"/><path class="cls-18" d="M695.45,361.64v8.76h-475s-3.8-24.52.8-23.69C302.19,361.31,695.45,361.64,695.45,361.64Z"/><rect class="cls-19" x="244.71" y="109.83" width="426.49" height="237.2"/><line class="cls-5" x1="220.47" y1="265.05" x2="220.47" y2="146.98"/><line class="cls-5" x1="695.45" y1="207.46" x2="695.45" y2="224.92"/><line class="cls-5" x1="695.45" y1="162.46" x2="695.45" y2="195.35"/><path class="cls-5" d="M220.47,134V99.68a17.1,17.1,0,0,1,17.09-17.1H678.35a17.11,17.11,0,0,1,17.1,17.1v49.59"/><line class="cls-5" x1="220.47" y1="370.4" x2="695.45" y2="370.4"/><rect class="cls-20" x="244.71" y="337.3" width="426.49" height="9.74"/><polygon class="cls-21" points="427.38 347.03 417.64 347.03 477.64 109.83 487.38 109.83 427.38 347.03"/><polygon class="cls-22" points="405.96 347.03 396.22 347.03 456.22 109.83 465.96 109.83 405.96 347.03"/><polygon class="cls-4" points="470.93 347.03 441.19 347.03 501.19 109.83 530.93 109.83 470.93 347.03"/><line class="cls-5" x1="244.71" y1="208.76" x2="244.71" y2="185.78"/><circle class="cls-18" cx="632.51" cy="359.56" r="2.49"/><circle class="cls-18" cx="637.19" cy="357.81" r="0.74"/><circle class="cls-18" cx="633.56" cy="354.78" r="0.74"/><circle class="cls-18" cx="626.42" cy="354.69" r="1.71"/><circle class="cls-18" cx="623.99" cy="359.75" r="1.51"/><circle class="cls-18" cx="619.7" cy="356.29" r="0.77"/><circle class="cls-18" cx="621.41" cy="352.87" r="0.94"/><circle class="cls-18" cx="614.06" cy="358.68" r="1.62"/><circle class="cls-18" cx="642.93" cy="356.53" r="1.01"/><circle class="cls-18" cx="639.13" cy="353.45" r="0.58"/><circle class="cls-18" cx="643.59" cy="351.36" r="1.01"/><circle class="cls-18" cx="638.95" cy="355.7" r="0.7"/><circle class="cls-18" cx="635.49" cy="351.36" r="0.79"/><circle class="cls-18" cx="630.51" cy="350.2" r="1.16"/><circle class="cls-18" cx="631.45" cy="353.12" r="0.25"/><circle class="cls-18" cx="630.38" cy="355.54" r="0.37"/><circle class="cls-18" cx="642.89" cy="360.69" r="1.62"/><circle class="cls-18" cx="649.4" cy="358.78" r="1.25"/><circle class="cls-18" cx="655.77" cy="360.86" r="2.63"/><circle class="cls-18" cx="663.75" cy="361.05" r="2.81"/><circle class="cls-18" cx="668.74" cy="359.91" r="1.23"/><circle class="cls-18" cx="664.19" cy="355.96" r="0.44"/><circle class="cls-18" cx="658.08" cy="353.82" r="0.95"/><circle class="cls-18" cx="654.1" cy="352.49" r="0.96"/><circle class="cls-18" cx="650.71" cy="353.68" r="1.31"/><circle class="cls-18" cx="647.19" cy="354.78" r="0.96"/><circle class="cls-18" cx="656.56" cy="356.86" r="0.57"/><circle class="cls-20" cx="582.81" cy="333.66" r="4.75"/><circle class="cls-20" cx="591.73" cy="330.33" r="1.41"/><circle class="cls-20" cx="584.82" cy="324.56" r="1.42"/><circle class="cls-20" cx="571.23" cy="324.39" r="3.25"/><circle class="cls-20" cx="566.6" cy="334.02" r="2.88"/><circle class="cls-20" cx="558.44" cy="327.45" r="1.47"/><circle class="cls-20" cx="561.71" cy="320.93" r="1.79"/><circle class="cls-20" cx="547.71" cy="331.99" r="3.07"/><circle class="cls-20" cx="602.66" cy="327.9" r="1.92"/><circle class="cls-20" cx="595.43" cy="322.04" r="1.1"/><circle class="cls-20" cx="603.91" cy="318.06" r="1.92"/><circle class="cls-20" cx="595.07" cy="326.31" r="1.33"/><circle class="cls-20" cx="588.49" cy="318.06" r="1.5"/><circle class="cls-20" cx="579.03" cy="315.85" r="2.21"/><circle class="cls-20" cx="580.8" cy="321.41" r="0.48"/><circle class="cls-20" cx="578.78" cy="326.02" r="0.71"/><circle class="cls-20" cx="602.58" cy="335.82" r="3.08"/><circle class="cls-20" cx="614.96" cy="332.19" r="2.38"/><circle class="cls-20" cx="627.09" cy="336.15" r="5"/><circle class="cls-20" cx="642.28" cy="336.5" r="5.36"/><circle class="cls-20" cx="651.76" cy="334.33" r="2.33"/><circle class="cls-20" cx="643.12" cy="326.81" r="0.83"/><circle class="cls-20" cx="631.49" cy="322.75" r="1.81"/><circle class="cls-20" cx="623.91" cy="320.22" r="1.82"/><circle class="cls-20" cx="617.46" cy="322.48" r="2.5"/><circle class="cls-20" cx="610.76" cy="324.56" r="1.82"/><circle class="cls-20" cx="628.59" cy="328.53" r="1.08"/><circle class="cls-14" cx="292.42" cy="386.25" r="2.24"/><line class="cls-2" x1="272.91" y1="124.25" x2="258.88" y2="156.67"/><line class="cls-2" x1="277.72" y1="134.02" x2="270.71" y2="150.24"/><circle class="cls-23" cx="268.28" cy="157.19" r="2.39"/><line class="cls-2" x1="260.48" y1="93.48" x2="308.05" y2="93.48"/><line class="cls-2" x1="318.52" y1="93.48" x2="328.08" y2="93.48"/><line class="cls-5" x1="695.25" y1="238.91" x2="695.25" y2="248.3"/><circle class="cls-14" cx="278.55" cy="381.39" r="7.45"/><circle class="cls-14" cx="286.48" cy="396.01" r="3.7"/><circle class="cls-14" cx="264.99" cy="388.84" r="3.68"/><circle class="cls-4" cx="457.76" cy="399.72" r="13.46"/><path class="cls-5" d="M471,392.49a15.25,15.25,0,1,1-13-7.33"/><line class="cls-2" x1="397.71" y1="461.78" x2="393.99" y2="471.61"/><line class="cls-2" x1="403.54" y1="446.4" x2="401.33" y2="452.24"/><line class="cls-24" x1="297.1" y1="337.3" x2="341.79" y2="337.3"/><line class="cls-25" x1="461.26" y1="93.48" x2="505.96" y2="93.48"/><line class="cls-25" x1="584.47" y1="93.48" x2="605.16" y2="93.48"/><rect class="cls-26" x="8.29" y="474.96" width="896.23" height="26.88" rx="13.44"/><path class="cls-27" d="M904.52,489a13.45,13.45,0,0,1-13.44,13.44H21.73A13.44,13.44,0,0,1,8.29,489a13.3,13.3,0,0,1,1.81-6.72A13.41,13.41,0,0,0,21.73,489H891.08a13.49,13.49,0,0,0,11.64-6.72A13.29,13.29,0,0,1,904.52,489Z"/><path class="cls-28" d="M165.42,483H98.82a3.5,3.5,0,0,1,0-7h66.6a3.5,3.5,0,1,1,0,7Z"/><path class="cls-28" d="M201.31,483h-16.6a3.5,3.5,0,1,1,0-7h16.6a3.5,3.5,0,0,1,0,7Z"/><path class="cls-27" d="M668.49,491.9h-66.6a3.5,3.5,0,0,1,0-7h66.6a3.5,3.5,0,0,1,0,7Z"/><path class="cls-27" d="M704.39,491.9h-16.6a3.5,3.5,0,0,1,0-7h16.6a3.5,3.5,0,0,1,0,7Z"/><path class="cls-29" d="M422.29,501.84h-66.6a3.5,3.5,0,0,1,0-7h66.6a3.5,3.5,0,0,1,0,7Z"/><path class="cls-29" d="M458.19,501.84h-16.6a3.5,3.5,0,0,1,0-7h16.6a3.5,3.5,0,0,1,0,7Z"/><path class="cls-29" d="M82.67,501.84H16.06a3.5,3.5,0,0,1,0-7H82.67a3.5,3.5,0,1,1,0,7Z"/><path class="cls-29" d="M118.56,501.84H102a3.5,3.5,0,1,1,0-7h16.6a3.5,3.5,0,0,1,0,7Z"/><path class="cls-29" d="M859.23,501.84h-66.6a3.5,3.5,0,0,1,0-7h66.6a3.5,3.5,0,0,1,0,7Z"/><path class="cls-29" d="M895.13,501.84H878.52a3.5,3.5,0,0,1,0-7h16.61a3.5,3.5,0,0,1,0,7Z"/><path class="cls-5" d="M332.16,475H891.08a13.44,13.44,0,0,1,13.44,13.44h0a13.44,13.44,0,0,1-13.44,13.44H21.73A13.44,13.44,0,0,1,8.29,488.4h0A13.44,13.44,0,0,1,21.73,475H263.1"/><line class="cls-5" x1="280.66" y1="474.96" x2="295.1" y2="474.96"/><line class="cls-5" x1="307.83" y1="474.96" x2="315.26" y2="474.96"/><path class="cls-5" d="M768.31,452.83a23.68,23.68,0,0,1,34.92,20.82"/><path class="cls-5" d="M755.91,473.65a23.55,23.55,0,0,1,5.26-14.88"/><rect class="cls-4" x="133.12" y="388.84" width="5.67" height="86.12"/><rect class="cls-30" x="142.77" y="388.84" width="2.72" height="86.12"/><path class="cls-2" d="M156.67,324.28h0a11.2,11.2,0,0,1,11.2,11.2h0a11.21,11.21,0,0,1-11.2,11.21h0a9.7,9.7,0,0,0-9.71,9.7v22.44"/><line class="cls-2" x1="134.79" y1="368.94" x2="134.79" y2="346.75"/><line class="cls-2" x1="158.97" y1="380.66" x2="158.97" y2="358.46"/><path class="cls-31" d="M163.08,415.65h0a2.79,2.79,0,0,1-2.79-2.79v-23.5h5.58v23.5A2.79,2.79,0,0,1,163.08,415.65Z"/><path class="cls-31" d="M176.91,390.87a4.92,4.92,0,0,1-9.83,0"/><rect class="cls-32" x="120.17" y="400.15" width="6.57" height="24.8" rx="3.28"/><line class="cls-33" x1="241.78" y1="257.78" x2="241.78" y2="308.03"/><line class="cls-33" x1="673.72" y1="147.67" x2="673.72" y2="197.91"/><line class="cls-33" x1="673.72" y1="267.46" x2="673.72" y2="317.71"/><line class="cls-34" x1="667.62" y1="218.16" x2="667.62" y2="268.41"/><line class="cls-34" x1="667.62" y1="119.88" x2="667.62" y2="130.12"/><line class="cls-34" x1="248.01" y1="238.48" x2="248.01" y2="248.72"/><path class="cls-14" d="M598.27,426.05H588a3.5,3.5,0,0,1,0-7h10.25a3.5,3.5,0,0,1,0,7Z"/><line class="cls-34" x1="248.01" y1="314.02" x2="248.01" y2="324.26"/><line class="cls-34" x1="248.01" y1="113.25" x2="248.01" y2="123.5"/><polyline class="cls-2" points="244.71 170.59 244.71 109.83 671.2 109.83 671.2 347.03 244.71 347.03 244.71 219.72"/><path class="cls-31" d="M149.15,390.21h5.12a0,0,0,0,1,0,0v12a2.56,2.56,0,0,1-2.56,2.56h0a2.56,2.56,0,0,1-2.56-2.56v-12A0,0,0,0,1,149.15,390.21Z"/><path class="cls-5" d="M114.14,416.14V395.09a5.44,5.44,0,0,1,5.44-5.44h56a5.45,5.45,0,0,1,5.44,5.44V469a5.44,5.44,0,0,1-5.44,5.43h-56a5.43,5.43,0,0,1-5.44-5.43v-26.5"/><line class="cls-5" x1="114.14" y1="433.04" x2="114.14" y2="424.57"/><circle class="cls-35" cx="866.08" cy="354.03" r="7.89"/><circle class="cls-2" cx="866.08" cy="354.03" r="7.89"/><polyline class="cls-2" points="846.05 370.4 852.3 371.17 849.97 391.33"/><path class="cls-36" d="M693.46,399.07V411.5c0,6.54-7,13-13.51,13H658"/><path class="cls-36" d="M276.87,425.57h-22"/><path class="cls-5" d="M695.45,262V410.16a16.24,16.24,0,0,1-16.24,16.24H236.71a16.24,16.24,0,0,1-16.24-16.24V277.51"/></g></g></svg>