<?xml version="1.0" encoding="UTF-8" standalone="no"?>
<svg
   xmlns:dc="http://purl.org/dc/elements/1.1/"
   xmlns:cc="http://creativecommons.org/ns#"
   xmlns:rdf="http://www.w3.org/1999/02/22-rdf-syntax-ns#"
   xmlns:svg="http://www.w3.org/2000/svg"
   xmlns="http://www.w3.org/2000/svg"
   id="svg4"
   version="1.1"
   viewBox="0 0 512 512">
  <metadata
     id="metadata10">
    <rdf:RDF>
      <cc:Work
         rdf:about="">
        <dc:format>image/svg+xml</dc:format>
        <dc:type
           rdf:resource="http://purl.org/dc/dcmitype/StillImage" />
        <dc:title></dc:title>
      </cc:Work>
    </rdf:RDF>
  </metadata>
  <defs
     id="defs8" />
  <path
     d="M 256,7.999995 C 119.0589,7.999995 7.999994,119.0589 7.999994,255.99999 7.999994,392.94109 119.0589,504 256,504 392.9411,504 504.00001,392.9411 504.00001,255.99999 504.00001,119.0589 392.9411,7.999995 256,7.999995 Z m -0.45091,23.65018 v 0 a 1.5781818,1.5781818 0 0 0 0.40582,0 c 102.53673,0 189.0211,68.808725 215.76,162.710545 a 390.37455,390.37455 0 0 1 -94.984,123.90982 c -19.096,16.52582 -39.97309,31.18036 -62.90182,41.52873 -22.95127,10.32582 -48.15709,16.21018 -73.20509,14.78982 a 126.25455,126.25455 0 0 1 -51.20073,-14.27128 412.04074,412.04074 0 0 0 114.48582,-92.88727 c 21.55345,-25.16073 40.37891,-53.88363 47.68364,-86.41673 3.72,-16.27781 4.28363,-33.36727 0.90181,-49.75782 A 91.962911,91.962911 0 0 0 329.97163,86.954176 90.474911,90.474911 0 0 0 288.14982,62.199266 109.34546,109.34546 0 0 0 239.60945,60.440721 c -32.08218,5.884363 -60.71491,24.484364 -83.53091,47.525819 -40.28873,40.58182 -65.156356,97.84727 -60.579636,155 2.29964,28.56509 11.813816,56.61164 28.226906,80.12655 3.224,4.62181 6.80873,8.97309 10.52873,13.16654 A 365.86764,365.86764 0 0 1 64.679274,372.92072 224.2371,224.2371 0 0 1 255.504,31.650175 Z m 1.57818,45.541819 c 0,-0.02255 0.36073,0.04509 0.27055,0.02254 15.60145,0 31.27054,4.757091 43.648,14.136001 a 72.145456,72.145456 0 0 1 24.07854,33.592725 92.887275,92.887275 0 0 1 4.32873,41.664 c -3.224,28.024 -17.36,53.83855 -34.56218,76.49673 -30.52655,40.08582 -71.15346,72.21309 -116.31201,94.69091 -4.28363,2.14182 -8.70254,4.216 -13.12145,6.17746 a 115.29746,115.29746 0 0 1 -23.67273,-29.19637 c -13.30182,-23.53745 -17.67563,-51.49382 -15.10545,-78.50327 2.61527,-27.032 11.85891,-53.11709 24.39418,-77.33091 14.49673,-28.04655 34.17891,-54.51491 61.59418,-69.665457 a 93.338184,93.338184 0 0 1 44.48219,-12.10691 z M 478.7491,230.72654 c 0.94691,8.27418 1.60072,16.66109 1.60072,25.18327 0,123.93237 -100.37237,224.39491 -224.32728,224.39491 A 223.58328,223.58328 0 0 1 84.902544,400.71927 408.92946,408.92946 0 0 0 156.37163,376.82109 c 10.39346,7.80072 21.80146,14.29381 33.976,18.93818 35.84728,13.75273 76.47419,11.72363 112.6371,-0.78909 36.14036,-12.51273 68.10981,-34.92291 95.95346,-60.98546 A 411.77019,411.77019 0 0 0 478.7491,230.72654 Z"
     id="path817" />
</svg>
