<svg width="1080" height="1080" viewBox="0 0 1080 1080" fill="none" xmlns="http://www.w3.org/2000/svg">
<circle cx="540.501" cy="539.501" r="406.396" stroke="currentColor" stroke-width="8.21003" fill="#0000" id="antares-circle"/>
<path d="M341.28 223.894C276.383 232.92 219.729 260.652 175.112 305.521C125.262 355.621 94.7757 420.242 84.5701 497.945C82.4766 514.035 82.4766 566.882 84.5701 582.972C90.0654 624.962 101.318 661.983 118.981 696.778C163.859 785.338 244.719 843.026 341.672 855.715C361.43 858.201 398.195 858.201 417.429 855.715C473.952 848.258 525.896 823.535 566.718 784.423C573.522 778.012 579.41 772.65 579.933 772.65C580.326 772.65 580.718 787.955 580.718 806.66V840.671H786.138V238.937H578.101V295.578L574.307 292.439C572.213 290.739 566.457 285.899 561.615 281.713C526.42 251.757 478.4 231.481 426.196 224.547C402.906 221.408 361.298 221.147 341.28 223.894ZM478.794 402.845C509.149 410.824 533.878 426.521 552.457 449.675C595.372 503.439 592.756 587.943 546.699 638.305C497.241 692.461 400.027 695.601 345.205 644.977C326.103 627.187 313.28 603.771 305.691 572.507C304.644 567.798 303.99 556.81 303.99 540.458C303.99 519.398 304.514 513.904 306.869 504.486C319.298 455.824 353.71 419.065 400.289 404.937C417.036 399.836 427.242 398.528 447.261 399.051C462.176 399.443 468.981 400.228 478.794 402.845ZM730.139 594.352C739.035 598.277 748.325 607.695 752.513 616.721C756.83 626.14 756.568 642.622 751.989 652.433C739.82 678.334 706.456 686.575 684.475 669.177C673.092 660.021 665.896 643.276 667.728 629.672C671.653 599.193 702.138 582.056 730.139 594.352ZM719.409 702.011C741.26 706.197 756.045 721.763 756.045 740.6C755.914 759.83 740.344 781.283 711.821 801.428C705.148 806.137 699.26 810.061 698.737 810.192C698.213 810.454 697.821 804.305 697.821 796.457C697.69 784.03 697.297 781.544 694.157 774.873C689.055 763.754 681.466 755.382 667.596 745.702C654.643 736.676 650.587 732.229 649.279 725.688C647.317 716.139 666.158 706.328 693.242 702.665C709.204 700.441 711.166 700.441 719.409 702.011Z" fill="currentColor"/>
</svg>
