<?xml version="1.0" encoding="UTF-8" standalone="no"?>
<svg
   xmlns:dc="http://purl.org/dc/elements/1.1/"
   xmlns:cc="http://creativecommons.org/ns#"
   xmlns:rdf="http://www.w3.org/1999/02/22-rdf-syntax-ns#"
   xmlns:svg="http://www.w3.org/2000/svg"
   xmlns="http://www.w3.org/2000/svg"
   viewBox="0 0 63.999999 63.999999"
   height="64"
   width="64"
   xml:space="preserve"
   id="svg2"
   version="1.1"><metadata
     id="metadata8"><rdf:RDF><cc:Work
         rdf:about=""><dc:format>image/svg+xml</dc:format><dc:type
           rdf:resource="http://purl.org/dc/dcmitype/StillImage" /><dc:title></dc:title></cc:Work></rdf:RDF></metadata><defs
     id="defs6" /><g
     transform="matrix(1.3333333,0,0,-1.3333333,0,63.999998)"
     id="g10"><g
       transform="scale(0.0375)"
       id="g12"><path
         id="path14"
         style="fill:#ef381f;fill-opacity:1;fill-rule:nonzero;stroke:none"
         d="M 1280,640 C 1280,286.539 993.461,0 640,0 286.539,0 0,286.539 0,640 c 0,353.461 286.539,640 640,640 353.461,0 640,-286.539 640,-640" /><path
         id="path16"
         style="fill:#ffffff;fill-opacity:1;fill-rule:nonzero;stroke:none"
         d="m 786.668,506.656 c -36.762,0 -66.668,29.907 -66.668,66.66 0,36.77 29.906,66.684 66.668,66.684 36.758,0 66.664,-29.914 66.664,-66.684 0,-36.753 -29.906,-66.66 -66.664,-66.66 z M 798.406,397.168 C 752.902,351.73 665.715,348.195 640.078,348.195 c -25.644,0 -112.84,3.535 -158.285,48.981 -6.746,6.746 -6.746,17.687 0.004,24.433 6.742,6.743 17.683,6.746 24.433,-0.004 28.676,-28.679 90.028,-38.855 133.848,-38.855 43.82,0 105.184,10.18 133.91,38.867 6.758,6.738 17.696,6.727 24.434,-0.015 6.742,-6.754 6.734,-17.692 -0.016,-24.434 z M 426.668,573.324 c 0,36.766 29.918,66.676 66.695,66.676 36.742,0 66.637,-29.91 66.637,-66.676 0,-36.75 -29.895,-66.652 -66.637,-66.652 -36.777,0 -66.695,29.902 -66.695,66.652 z M 1066.56,640 c 0,51.547 -41.78,93.332 -93.33,93.332 -25.16,0 -47.949,-10.004 -64.734,-26.187 -63.797,46.039 -151.695,75.769 -249.601,79.187 l 42.519,200.027 138.906,-29.527 c 1.688,-35.316 30.614,-63.5 66.348,-63.5 36.816,0 66.664,29.848 66.664,66.668 0,36.82 -29.848,66.67 -66.664,66.67 -26.191,0 -48.621,-15.24 -59.523,-37.213 l -155.106,32.973 c -4.316,0.94 -8.836,0.09 -12.539,-2.32 -3.711,-2.41 -6.309,-6.2 -7.227,-10.52 l -47.48,-223.195 c -99.34,-2.758 -188.648,-32.532 -253.266,-79.082 -16.769,16.085 -39.48,26.019 -64.547,26.019 -51.546,0 -93.335,-41.785 -93.335,-93.332 0,-37.926 22.66,-70.5 55.144,-85.102 -1.437,-9.277 -2.226,-18.687 -2.226,-28.23 0,-143.594 167.148,-259.996 373.332,-259.996 206.187,0 373.335,116.402 373.335,259.996 0,9.477 -0.77,18.828 -2.19,28.047 32.69,14.515 55.52,47.207 55.52,85.285" /></g></g></svg>